<svg width="20" height="20" viewBox="0 0 20 20" fill="none" xmlns="http://www.w3.org/2000/svg">
<path d="M12.9167 1.66699H7.08333C6.5308 1.66699 6.00089 1.88648 5.61019 2.27718C5.21949 2.66788 5 3.19779 5 3.75033V16.2503C5 16.8028 5.21949 17.3327 5.61019 17.7235C6.00089 18.1142 6.5308 18.3337 7.08333 18.3337H12.9167C13.4692 18.3337 13.9991 18.1142 14.3898 17.7235C14.7805 17.3327 15 16.8028 15 16.2503V3.75033C15 3.19779 14.7805 2.66788 14.3898 2.27718C13.9991 1.88648 13.4692 1.66699 12.9167 1.66699ZM7.08333 2.91699H12.9167C13.1376 2.91723 13.3494 3.00511 13.5057 3.16133C13.6619 3.31757 13.7498 3.52938 13.75 3.75033V10.0003H6.25V3.75033C6.25024 3.52938 6.33812 3.31757 6.49434 3.16133C6.65058 3.00511 6.86239 2.91723 7.08333 2.91699ZM10.5833 11.2503H13.75V13.5837H10.5833V11.2503ZM9.41667 13.5837H6.25V11.2503H9.41667V13.5837ZM6.25 16.2503V14.7503H9.41667V17.0837H7.08333C6.86239 17.0834 6.65058 16.9956 6.49434 16.8393C6.33812 16.6831 6.25024 16.4712 6.25 16.2503ZM12.9167 17.0837H10.5833V14.7503H13.75V16.2503C13.7498 16.4712 13.6619 16.6831 13.5057 16.8393C13.3494 16.9956 13.1376 17.0834 12.9167 17.0837Z" fill="black"/>
</svg>
