<svg width="32" height="32" viewBox="0 0 32 32" fill="none" xmlns="http://www.w3.org/2000/svg">
<path d="M20.8954 10.6669L19.0154 3.65131C18.9814 3.52443 18.9227 3.4055 18.8427 3.30131C18.7627 3.19711 18.663 3.1097 18.5491 3.04405C18.4354 2.97839 18.3098 2.93579 18.1795 2.91869C18.0494 2.90157 17.917 2.91027 17.7901 2.94431C17.6633 2.97834 17.5443 3.03702 17.4402 3.11702C17.3359 3.19701 17.2485 3.29674 17.1829 3.41051C17.1173 3.52429 17.0746 3.64989 17.0575 3.78013C17.0403 3.91037 17.0491 4.0427 17.0831 4.16958L18.8241 10.6669H13.1753L14.9163 4.16958C14.9503 4.0427 14.9591 3.91037 14.9419 3.78013C14.9249 3.64989 14.8822 3.52429 14.8166 3.41051C14.751 3.29674 14.6635 3.19701 14.5593 3.11702C14.4551 3.03702 14.3362 2.97834 14.2094 2.94431C14.0825 2.91027 13.9501 2.90157 13.8199 2.91869C13.6897 2.93579 13.5641 2.97839 13.4503 3.04405C13.3365 3.1097 13.2368 3.19711 13.1568 3.30131C13.0768 3.4055 13.0181 3.52443 12.9841 3.65131L11.1039 10.6669H1.33301V13.2002L5.25101 28.0002H26.7483L30.6207 13.5452L30.6663 10.6669H20.8954ZM28.6249 13.2669L25.2137 26.0002H6.79047L3.33301 12.9398V12.6669H28.6345L28.6249 13.2669ZM10.4151 18.3024C10.6525 18.3024 10.8845 18.232 11.0818 18.1001C11.2792 17.9682 11.433 17.7809 11.5238 17.5616C11.6146 17.3424 11.6384 17.101 11.5921 16.8682C11.5458 16.6354 11.4315 16.4217 11.2637 16.2538C11.0958 16.086 10.882 15.9717 10.6492 15.9254C10.4165 15.8792 10.1752 15.9029 9.95593 15.9937C9.73665 16.0845 9.54923 16.2384 9.41738 16.4357C9.28551 16.633 9.21514 16.865 9.21514 17.1024C9.21514 17.4206 9.34157 17.7258 9.56661 17.9509C9.79166 18.176 10.0969 18.3024 10.4151 18.3024ZM21.5842 18.3024C21.8215 18.3024 22.0535 18.232 22.2509 18.1001C22.4482 17.9682 22.6021 17.7809 22.6929 17.5616C22.7837 17.3424 22.8074 17.101 22.7611 16.8682C22.7149 16.6354 22.6006 16.4217 22.4327 16.2538C22.2649 16.086 22.0511 15.9717 21.8183 15.9254C21.5855 15.8792 21.3442 15.9029 21.125 15.9937C20.9057 16.0845 20.7183 16.2384 20.5865 16.4357C20.4546 16.633 20.3842 16.865 20.3842 17.1024C20.3842 17.4206 20.5106 17.7258 20.7357 17.9509C20.9607 18.176 21.2659 18.3024 21.5842 18.3024Z" fill="black"/>
</svg>
