<svg width="20" height="20" viewBox="0 0 20 20" fill="none" xmlns="http://www.w3.org/2000/svg">
<path d="M18.2117 17.6226L13.3284 12.7392C14.4773 11.4372 15.0744 9.73914 14.9931 8.00458C14.912 6.27004 14.1588 4.63519 12.8933 3.44623C11.6277 2.25726 9.94914 1.60753 8.21291 1.6346C6.47668 1.66168 4.81914 2.36344 3.59129 3.59129C2.36344 4.81914 1.66168 6.47668 1.6346 8.21291C1.60753 9.94914 2.25726 11.6277 3.44623 12.8933C4.63519 14.1588 6.27004 14.912 8.00458 14.9931C9.73914 15.0744 11.4372 14.4773 12.7392 13.3284L17.6226 18.2117L18.2117 17.6226ZM8.3338 14.1671C7.18004 14.1671 6.05222 13.825 5.09294 13.184C4.13365 12.5431 3.38598 11.632 2.94447 10.5661C2.50295 9.50022 2.38744 8.32729 2.61252 7.19574C2.83759 6.06418 3.39317 5.02478 4.20897 4.20897C5.02478 3.39317 6.06418 2.83759 7.19574 2.61252C8.32729 2.38744 9.50022 2.50295 10.5661 2.94447C11.632 3.38598 12.5431 4.13365 13.184 5.09294C13.825 6.05222 14.1671 7.18004 14.1671 8.3338C14.1654 9.8803 13.5502 11.3631 12.4566 12.4566C11.3631 13.5502 9.8803 14.1654 8.3338 14.1671Z" fill="#888888"/>
</svg>
