<svg width="33" height="32" viewBox="0 0 33 32" fill="none" xmlns="http://www.w3.org/2000/svg">
<path fill-rule="evenodd" clip-rule="evenodd" d="M0.599609 16C0.599609 7.16344 7.76305 0 16.5996 0C25.4362 0 32.5996 7.16344 32.5996 16C32.5996 24.8366 25.4362 32 16.5996 32C7.76305 32 0.599609 24.8366 0.599609 16ZM16.6004 7.46667C14.2829 7.46667 13.992 7.4768 13.0818 7.51822C12.1733 7.55982 11.5532 7.70365 11.0107 7.91467C10.4494 8.13263 9.97332 8.42419 9.499 8.89868C9.02433 9.373 8.73277 9.84909 8.5141 10.4102C8.30255 10.9529 8.15854 11.5732 8.11765 12.4813C8.07694 13.3915 8.06628 13.6826 8.06628 16.0001C8.06628 18.3176 8.07659 18.6076 8.11783 19.5178C8.15961 20.4263 8.30343 21.0464 8.51428 21.5889C8.73242 22.1502 9.02397 22.6263 9.49847 23.1006C9.97261 23.5753 10.4487 23.8675 11.0096 24.0855C11.5525 24.2965 12.1728 24.4404 13.0811 24.482C13.9913 24.5234 14.282 24.5335 16.5993 24.5335C18.9171 24.5335 19.207 24.5234 20.1172 24.482C21.0257 24.4404 21.6465 24.2965 22.1894 24.0855C22.7505 23.8675 23.2259 23.5753 23.7 23.1006C24.1747 22.6263 24.4663 22.1502 24.6849 21.5891C24.8947 21.0464 25.0387 20.4261 25.0814 19.518C25.1223 18.6078 25.1329 18.3176 25.1329 16.0001C25.1329 13.6826 25.1223 13.3917 25.0814 12.4815C25.0387 11.573 24.8947 10.9529 24.6849 10.4103C24.4663 9.84909 24.1747 9.373 23.7 8.89868C23.2254 8.42401 22.7507 8.13245 22.1889 7.91467C21.6449 7.70365 21.0245 7.55982 20.116 7.51822C19.2058 7.4768 18.916 7.46667 16.5977 7.46667H16.6004Z" fill="white"/>
<path fill-rule="evenodd" clip-rule="evenodd" d="M15.8349 9.00446C16.0621 9.00411 16.3156 9.00446 16.6004 9.00446C18.8788 9.00446 19.1489 9.01264 20.0486 9.05353C20.8806 9.09157 21.3322 9.2306 21.633 9.3474C22.0312 9.50207 22.3151 9.68696 22.6136 9.98563C22.9123 10.2843 23.0972 10.5687 23.2522 10.967C23.369 11.2674 23.5082 11.719 23.5461 12.551C23.587 13.4506 23.5959 13.7208 23.5959 15.9981C23.5959 18.2755 23.587 18.5457 23.5461 19.4453C23.508 20.2773 23.369 20.7288 23.2522 21.0293C23.0975 21.4275 22.9123 21.7111 22.6136 22.0096C22.315 22.3082 22.0314 22.4931 21.633 22.6478C21.3325 22.7651 20.8806 22.9038 20.0486 22.9418C19.1491 22.9827 18.8788 22.9916 16.6004 22.9916C14.3218 22.9916 14.0518 22.9827 13.1522 22.9418C12.3202 22.9035 11.8686 22.7644 11.5676 22.6476C11.1694 22.493 10.885 22.3081 10.5863 22.0094C10.2876 21.7107 10.1027 21.427 9.94772 21.0286C9.83092 20.7281 9.69172 20.2766 9.65385 19.4446C9.61296 18.545 9.60478 18.2748 9.60478 15.996C9.60478 13.7172 9.61296 13.4484 9.65385 12.5489C9.69189 11.7168 9.83092 11.2653 9.94772 10.9645C10.1024 10.5663 10.2876 10.2818 10.5863 9.98314C10.885 9.68447 11.1694 9.49958 11.5676 9.34455C11.8684 9.22722 12.3202 9.08855 13.1522 9.05033C13.9394 9.01477 14.2445 9.0041 15.8349 9.00233V9.00446ZM21.1555 10.4214C20.5901 10.4214 20.1315 10.8795 20.1315 11.445C20.1315 12.0104 20.5901 12.469 21.1555 12.469C21.7208 12.469 22.1795 12.0104 22.1795 11.445C22.1795 10.8797 21.7208 10.4214 21.1555 10.4214ZM16.6004 11.6178C14.1803 11.6178 12.2181 13.58 12.2181 16.0001C12.2181 18.4202 14.1803 20.3815 16.6004 20.3815C19.0205 20.3815 20.982 18.4202 20.982 16.0001C20.982 13.58 19.0205 11.6178 16.6004 11.6178Z" fill="white"/>
<path fill-rule="evenodd" clip-rule="evenodd" d="M16.6004 13.1556C18.1713 13.1556 19.4449 14.4291 19.4449 16.0001C19.4449 17.5709 18.1713 18.8446 16.6004 18.8446C15.0294 18.8446 13.7559 17.5709 13.7559 16.0001C13.7559 14.4291 15.0294 13.1556 16.6004 13.1556Z" fill="white"/>
</svg>
