<svg width="130" height="24" viewBox="0 0 130 24" fill="none" xmlns="http://www.w3.org/2000/svg">
<path d="M62.39 12.9252C62.8489 12.9668 63.2879 12.9876 63.7468 13.0292C65.6622 13.1541 67.5976 13.2166 69.513 13.4039C71.1491 13.5704 72.8051 13.7993 74.3016 14.6318C74.5809 14.7983 74.9001 14.9232 75.1595 15.1105C76.5761 16.0471 76.6958 17.8161 75.3391 18.8359C74.3814 19.5644 73.3039 20.1888 72.2066 20.6258C69.094 21.8746 65.9016 22.8736 62.5297 23.1025C61.4722 23.1649 60.4148 23.2898 59.3573 23.3523C58.3198 23.4355 57.9207 23.1441 57.8409 22.0619C57.7212 20.0014 57.6813 17.941 57.6214 15.8806C57.6015 15.5267 57.6214 15.1521 57.6214 14.7983C57.0229 14.611 56.3046 14.6942 56.2447 13.8826C56.1649 13.0292 56.9231 12.9876 57.5815 12.6754C57.402 10.0322 57.2024 7.34743 57.0229 4.60017C56.564 4.55855 56.2248 4.51693 55.8656 4.51693C54.8281 4.49611 53.8106 4.53774 52.773 4.49611C51.9949 4.45449 51.4961 4.03824 51.4961 3.55955C51.516 3.06005 52.0947 2.58136 52.8329 2.58136C54.1896 2.56055 55.5464 2.53973 56.9032 2.60217C59.1777 2.70623 61.4523 2.8103 63.7268 3.01842C65.8617 3.22655 67.9966 3.53874 69.8123 4.91236C69.9919 5.03724 70.1714 5.16211 70.3311 5.3078C71.3885 6.3068 71.3686 7.61799 70.1914 8.4713C69.1938 9.19974 68.1363 9.84493 67.0589 10.4277C65.8617 11.0729 64.6047 11.6348 63.3877 12.2384C63.0485 12.4049 62.7093 12.5714 62.3701 12.7379C62.3701 12.7795 62.39 12.8627 62.39 12.9252ZM59.8561 20.7299C60.1953 20.7715 60.3749 20.8339 60.5744 20.8339C63.5074 20.7507 66.4404 20.4593 69.2536 19.5852C70.5306 19.1898 71.7676 18.5238 72.9648 17.8578C73.8426 17.3791 73.7828 16.609 72.8849 16.2552C71.9671 15.8806 70.9695 15.5476 69.9919 15.4643C66.7795 15.1729 63.5473 15.0064 60.335 14.7983C60.0955 14.7775 59.8761 14.8191 59.5568 14.8399C59.6366 16.8379 59.7563 18.7527 59.8561 20.7299ZM69.3534 6.78549C69.3135 6.66061 69.2935 6.53574 69.2536 6.41086C66.161 4.78749 62.7891 4.82911 59.3573 4.53774C59.5169 7.11849 59.0979 9.51193 59.3972 11.9886C59.7164 11.9054 59.9359 11.8846 60.1354 11.7805C62.6893 10.5526 65.2632 9.32462 67.7971 8.03424C68.3757 7.76368 68.8346 7.22255 69.3534 6.78549Z" fill="black"/>
<path d="M2.51399 2.18532C2.51399 4.78689 2.51399 7.24277 2.51399 9.78191C5.12774 9.78191 7.72155 9.78191 10.3952 9.78191C10.3952 10.552 10.3952 11.2388 10.3952 12.0505C7.82131 12.0505 5.20755 12.0505 2.53394 12.0505C2.53394 14.8602 2.53394 17.5658 2.53394 20.3547C5.96574 20.3547 9.37759 20.3547 12.8493 20.3547C12.8493 21.1248 12.8493 21.8116 12.8493 22.5816C8.59945 22.5816 4.32965 22.5816 0 22.5816C0 15.0683 0 7.55496 0 0C4.24984 0 8.47973 0 12.7495 0C12.7495 0.707627 12.7495 1.39444 12.7495 2.18532C9.35764 2.18532 5.96574 2.18532 2.51399 2.18532Z" fill="black"/>
<path d="M119.136 12.8198C119.496 12.9863 119.815 13.2153 120.174 13.3193C121.85 13.8188 123.526 14.2975 125.182 14.7762C126.379 15.13 127.437 15.692 128.454 16.4412C130.07 17.6275 129.991 20.2708 128.753 21.4571C127.716 22.4561 126.599 23.2053 125.162 23.4759C122.927 23.8921 120.713 24.2668 118.458 23.7465C117.64 23.5591 116.842 23.2886 116.044 22.9764C115.286 22.6642 114.707 22.1023 114.408 21.2906C114.168 20.687 114.328 20.1042 114.747 19.7504C115.166 19.3966 115.804 19.355 116.263 19.7504C118.059 21.353 120.194 21.353 122.369 21.1241C123.067 21.0616 123.785 20.9576 124.464 20.7703C124.943 20.6454 125.421 20.3956 125.84 20.1042C126.539 19.6256 126.519 18.7931 125.741 18.4392C124.623 17.9189 123.466 17.5235 122.329 17.0864C121.132 16.6285 119.915 16.2539 118.717 15.7752C117.281 15.1925 116.383 13.7564 116.503 12.1746C116.563 11.4046 116.782 10.5929 117.101 9.90608C118.338 7.32532 121.431 5.66031 124.164 6.03493C125.102 6.15981 125.94 6.53444 126.599 7.26288C126.898 7.59588 127.077 7.97051 126.898 8.40757C126.718 8.84464 126.319 8.86545 125.94 8.88626C124.723 8.9487 123.506 8.96951 122.289 9.1152C121.251 9.24007 120.413 9.80201 119.715 10.6137C119.236 11.2173 119.017 11.8833 119.136 12.8198Z" fill="black"/>
<path d="M105.07 15.9432C104.711 16.297 104.491 16.526 104.272 16.7549C102.416 18.7113 100.501 20.5844 98.2462 22.0621C97.8272 22.3327 97.3084 22.5616 96.8296 22.6032C95.4329 22.7281 94.6149 22.0829 94.3555 20.626C94.2358 19.9392 94.156 19.2108 94.1759 18.524C94.2158 16.7965 94.3156 15.0691 94.4153 13.3625C94.4951 11.6766 94.6149 9.97001 94.6947 8.2842C94.7146 7.80551 94.8543 7.43088 95.3332 7.36845C95.7921 7.2852 96.1712 7.53494 96.2909 7.97201C96.4305 8.38826 96.4904 8.84614 96.4904 9.30401C96.4505 12.4675 96.3707 15.6518 96.3308 18.8153C96.3308 19.3357 96.3707 19.856 96.3906 20.5012C96.65 20.3763 96.7897 20.3555 96.8695 20.2722C100.182 17.2128 103.294 13.9452 106.127 10.3863C106.586 9.82433 107.045 9.26239 107.524 8.72126C107.863 8.34664 108.282 8.13851 108.761 8.40907C109.22 8.65882 109.3 9.1167 109.2 9.57457C109.001 10.532 108.721 11.4893 108.522 12.4675C108.262 13.7995 108.023 15.1315 107.823 16.4635C107.763 16.8798 107.763 17.3168 107.803 17.7331C107.923 19.19 108.961 20.0017 110.357 19.7311C110.756 19.6687 111.155 19.523 111.554 19.4397C112.233 19.294 112.692 19.4813 112.891 19.9392C113.091 20.3763 112.991 20.959 112.492 21.3753C112.093 21.7083 111.654 21.9997 111.175 22.2078C108.442 23.4149 105.289 21.3753 105.09 18.3158C105.03 17.5874 105.07 16.8798 105.07 15.9432Z" fill="black"/>
<path d="M30.0283 20.3336C30.0283 21.1661 30.0283 21.8321 30.0283 22.5813C25.9182 22.5813 21.8479 22.5813 17.7178 22.5813C17.7178 15.0472 17.7178 7.57547 17.7178 0.0205078C18.5358 0.0205078 19.3339 0.0205078 20.2118 0.0205078C20.2118 6.74297 20.2118 13.4862 20.2118 20.3544C23.5039 20.3336 26.7163 20.3336 30.0283 20.3336Z" fill="black"/>
<path d="M82.4826 23.2275C81.2256 23.6438 80.6469 23.2275 80.627 22.1244C80.607 21.1671 80.5472 20.2097 80.4873 19.2523C80.3676 17.6081 80.208 15.9847 80.1082 14.3405C80.0085 12.5923 79.9486 10.844 79.8888 9.09577C79.8888 8.95009 79.8688 8.8044 79.8888 8.67952C79.9287 8.03433 80.2878 7.59727 80.7866 7.55564C81.3054 7.51402 81.7244 7.84702 81.8441 8.51302C81.9837 9.4704 82.0635 10.4278 82.1434 11.3852C82.2631 12.6755 82.3828 13.9659 82.6621 15.2979C82.7818 15.1314 82.9215 14.9857 83.0013 14.7984C84.378 12.1136 86.3932 10.0323 88.8274 8.42977C89.6454 7.88864 90.663 7.61808 91.6207 7.36833C92.3789 7.18102 92.9376 7.63889 93.1171 8.32571C93.2767 8.95008 93.0573 9.38715 92.3988 9.76178C91.4611 10.3029 90.4635 10.8024 89.5656 11.406C87.311 12.8837 85.3956 14.736 83.9989 17.1294C83.1809 18.5447 82.8417 20.0848 82.7419 21.729C82.702 22.2493 82.5624 22.7488 82.4826 23.2275Z" fill="black"/>
<path d="M37.9295 7.01595C38.568 6.84945 39.1865 6.66214 39.825 6.49564C39.805 6.39158 39.805 6.28751 39.785 6.18345C38.6877 6.12101 37.5703 6.18345 36.473 6.30832C36.453 6.22507 36.453 6.14182 36.4331 6.07939C37.5703 5.82964 38.7076 5.55907 39.8449 5.30932C39.8249 5.22607 39.825 5.12201 39.805 5.03876C39.3062 5.05957 38.7874 5.10119 38.2886 5.12201C38.2687 5.05957 38.2487 4.99713 38.2487 4.93469C38.7675 4.76819 39.2862 4.6225 39.785 4.456C39.785 4.41438 39.7651 4.37275 39.7651 4.33113C39.4858 4.31031 39.2064 4.2895 38.9271 4.26869C38.9071 4.20625 38.8872 4.14381 38.8672 4.08138C39.2064 3.9565 39.5456 3.81081 40.0245 3.64431C39.6853 3.51944 39.5057 3.457 39.2264 3.37375C39.4459 3.22806 39.5855 3.124 39.6055 3.10319C39.825 2.6245 40.0045 2.22906 40.224 1.79199C40.4235 1.79199 40.663 1.79199 40.9024 1.79199C40.9223 1.97931 40.9622 2.14581 40.9822 2.33312C40.8625 2.41637 40.7228 2.47881 40.5632 2.58287C40.7228 2.66612 40.8625 2.72856 41.0819 2.85344C40.8625 2.99912 40.6829 3.10319 40.3637 3.31131C40.8026 3.41537 41.1418 3.49863 41.481 3.58188C41.4012 3.70675 41.3413 3.81081 41.2615 3.9565C41.5209 4.01894 41.7603 4.08138 41.9998 4.14382C41.9998 4.18544 41.9998 4.24788 42.0197 4.2895C41.6207 4.39357 41.2216 4.49763 40.8226 4.60169C40.8226 4.64332 40.8226 4.68494 40.8226 4.72657C41.481 4.78901 42.1195 4.85144 42.7779 4.89307C42.7978 4.9555 42.7979 5.01794 42.8178 5.08038C42.0397 5.24688 41.2416 5.4342 40.4634 5.6007C40.4834 5.68395 40.4834 5.7672 40.5033 5.87126C41.4012 6.16264 42.3788 5.80882 43.2767 6.24588C42.3389 6.4332 41.4012 6.5997 40.4834 6.78701C40.4834 6.87026 40.4634 6.97433 40.4634 7.05758C40.7827 7.18245 41.1019 7.28651 41.5408 7.45302C41.1019 7.61952 40.7827 7.72358 40.3637 7.89008C40.623 8.07739 40.7627 8.16064 40.9622 8.30633C40.8226 8.43121 40.7029 8.53527 40.4834 8.7434C41.6007 8.86827 42.5584 8.99315 43.5361 9.09721C43.5361 9.18046 43.5361 9.2429 43.5361 9.32615C42.5185 9.49265 41.5009 9.63834 40.5033 9.80484C40.5033 9.86728 40.5033 9.95053 40.5233 10.013C41.5608 10.2627 42.6582 9.88809 43.6957 10.0754C43.7157 10.1378 43.7157 10.2211 43.7356 10.2835C43.157 10.3876 42.5584 10.5125 41.9798 10.6165C40.623 10.8455 40.623 10.8247 40.5233 11.3866C41.2815 11.449 42.0397 11.5115 42.7978 11.5739C42.7978 11.6363 42.7979 11.7196 42.8178 11.782C42.1195 11.8653 41.4411 11.9277 40.7428 12.011C40.7428 12.0526 40.7627 12.0734 40.7627 12.115C41.062 12.1983 41.3812 12.3023 41.6805 12.3856C41.6805 12.4688 41.6805 12.5313 41.6805 12.6145C41.3613 12.7186 41.042 12.8227 40.6829 12.9267C40.6031 13.2389 40.5033 13.5927 40.4036 14.0506C41.0221 14.113 41.5409 14.1547 42.0596 14.1963C42.0596 14.2379 42.0596 14.3004 42.0596 14.342C41.5209 14.4669 40.9822 14.5917 40.4435 14.7166C40.4435 14.8207 40.4634 14.9039 40.4634 15.008C41.88 15.0704 43.3166 15.1329 44.9128 15.2161C44.3741 15.7781 43.8354 15.5699 43.3765 15.6948C42.8976 15.8197 42.3988 15.8197 41.9199 15.9029C41.4211 15.9654 40.9223 16.0694 40.4235 16.1319C40.4036 16.2151 40.4036 16.2984 40.3836 16.4024C40.5632 16.4857 40.7228 16.6522 40.9024 16.6314C41.88 16.6314 42.8577 16.5689 43.8354 16.5481C44.0947 16.5481 44.3741 16.5897 44.6335 16.7354C43.9551 17.0684 43.2368 17.0892 42.5185 17.1725C41.8002 17.2557 41.1019 17.3598 40.3836 17.4639C40.3836 17.5679 40.3637 17.672 40.3637 17.7761C40.5632 17.8385 40.7428 17.9634 40.9423 17.9634C41.7204 17.9634 42.5185 17.9217 43.2967 17.9217C43.5361 17.9217 43.7556 17.9842 43.995 18.0258C43.995 18.1091 43.995 18.2131 43.995 18.2964C42.9774 18.4004 41.9598 18.5045 40.9423 18.6086C40.9423 18.6502 40.9423 18.7126 40.9423 18.7543C41.2216 18.8375 41.5009 18.9208 41.7803 19.004C41.7803 19.0664 41.7803 19.1497 41.7803 19.2121C41.4012 19.3162 41.042 19.4411 40.6031 19.5659C40.4634 20.6274 40.3437 21.7096 40.204 22.7711C40.1043 22.7711 40.0245 22.7711 39.9247 22.7503C39.5855 21.6056 39.9646 20.3984 39.7052 19.1913C39.2064 19.1497 38.6677 19.0873 38.149 19.0456C38.149 18.9624 38.129 18.8791 38.129 18.7959C38.5281 18.671 38.9071 18.5669 39.3062 18.4421C39.3062 18.4212 39.3062 18.3796 39.2862 18.3588C37.8297 18.3588 36.3532 18.3588 34.8967 18.3588C34.8967 18.2964 34.8768 18.2131 34.8768 18.1507C36.3333 17.5055 37.9494 17.5263 39.4658 17.1101C37.6701 16.8811 35.8943 17.1101 34.0986 17.1725C34.378 16.7354 34.8169 16.7354 35.216 16.673C36.5528 16.4441 37.8896 16.2359 39.2264 16.007C39.4459 15.9654 39.6653 15.8405 39.8649 15.6115C39.0867 15.2161 38.2886 15.3202 37.5105 15.3618C36.7523 15.4034 35.9742 15.5075 35.196 15.4659C35.8744 14.9872 36.6725 14.9664 37.4307 14.7999C38.2288 14.6334 39.0269 14.5501 39.8649 14.4252C39.7451 14.0506 39.6454 13.7176 39.5257 13.3638C39.406 13.3014 39.2663 13.1973 39.0269 13.0516C39.2463 12.8851 39.4259 12.7394 39.7451 12.4897C39.2862 12.4897 38.987 12.4897 38.7076 12.4897C38.4682 12.4688 38.2288 12.448 37.9694 12.4064C37.9694 12.3232 37.9494 12.2399 37.9494 12.1358C38.3684 12.0318 38.8074 11.9277 39.2663 11.8028C37.73 11.4698 36.2136 11.8028 34.7172 11.8861C34.7172 11.8028 34.6972 11.7196 34.6972 11.6363C36.3532 11.3242 38.0093 11.0328 39.6454 10.7206C39.6454 10.6582 39.6454 10.5749 39.6254 10.5125C38.3884 10.3668 37.1513 10.6582 35.9143 10.7206C35.9143 10.6373 35.8943 10.5541 35.8943 10.4708C37.1713 10.2003 38.4482 9.92971 39.785 9.65915C40.1242 8.9099 39.3062 8.5769 39.3062 7.84846C39.3461 7.80683 39.5257 7.68195 39.8449 7.45302C39.1665 7.41139 38.6079 7.36977 38.0492 7.32814C37.9694 7.16164 37.9494 7.0992 37.9295 7.01595Z" fill="black"/>
</svg>
