<svg width="173" height="32" viewBox="0 0 173 32" fill="none" xmlns="http://www.w3.org/2000/svg">
<path d="M83.1872 17.2325C83.7991 17.288 84.3843 17.3157 84.9962 17.3712C87.5501 17.5377 90.1305 17.621 92.6844 17.8707C94.8658 18.0927 97.0739 18.3979 99.0691 19.5079C99.4415 19.7299 99.8671 19.8964 100.213 20.1462C102.102 21.3949 102.261 23.7536 100.452 25.1134C99.1755 26.0846 97.7389 26.9171 96.2758 27.4999C92.1257 29.1648 87.8693 30.4968 83.3734 30.8021C81.9635 30.8853 80.5535 31.0518 79.1436 31.1351C77.7603 31.2461 77.2282 30.8576 77.1218 29.4146C76.9622 26.6674 76.909 23.9201 76.8292 21.1729C76.8026 20.7012 76.8292 20.2017 76.8292 19.7299C76.0311 19.4802 75.0734 19.5912 74.9936 18.5089C74.8872 17.3712 75.8981 17.3157 76.776 16.8995C76.5365 13.3752 76.2705 9.79552 76.0311 6.13256C75.4192 6.07706 74.967 6.02156 74.4881 6.02156C73.1048 5.99381 71.748 6.04931 70.3647 5.99381C69.3272 5.93831 68.6621 5.38332 68.6621 4.74507C68.6887 4.07908 69.4602 3.44084 70.4445 3.44084C72.2535 3.41309 74.0625 3.38533 75.8715 3.46858C78.9042 3.60733 81.9369 3.74608 84.9696 4.02358C87.8161 4.30108 90.6626 4.71732 93.0834 6.54881C93.3229 6.7153 93.5623 6.8818 93.7751 7.07605C95.1851 8.40804 95.1585 10.1563 93.5889 11.294C92.2588 12.2653 90.8488 13.1255 89.4123 13.9025C87.8161 14.7627 86.1401 15.512 84.5174 16.3167C84.0651 16.5387 83.6129 16.7607 83.1606 16.9827C83.1606 17.0382 83.1872 17.1492 83.1872 17.2325ZM79.8087 27.6386C80.2609 27.6941 80.5003 27.7774 80.7664 27.7774C84.677 27.6664 88.5876 27.2779 92.3386 26.1124C94.0411 25.5851 95.6905 24.6971 97.2867 23.8091C98.4572 23.1709 98.3774 22.1442 97.1803 21.6724C95.9565 21.1729 94.6264 20.7289 93.3229 20.6179C89.0398 20.2294 84.7302 20.0074 80.4471 19.7299C80.1279 19.7022 79.8353 19.7577 79.4096 19.7854C79.516 22.4494 79.6757 25.0024 79.8087 27.6386ZM92.4716 9.04628C92.4184 8.87978 92.3918 8.71328 92.3386 8.54679C88.2151 6.38231 83.7193 6.43781 79.1436 6.04931C79.3564 9.49028 78.7978 12.6815 79.1968 15.9837C79.6224 15.8727 79.9151 15.845 80.1811 15.7062C83.5863 14.069 87.018 12.4317 90.3966 10.7113C91.168 10.3505 91.7799 9.62903 92.4716 9.04628Z" fill="white"/>
<path d="M3.35195 2.91373C3.35195 6.38245 3.35195 9.65693 3.35195 13.0424C6.83692 13.0424 10.2953 13.0424 13.8601 13.0424C13.8601 14.0691 13.8601 14.9849 13.8601 16.0671C10.4283 16.0671 6.94333 16.0671 3.37856 16.0671C3.37856 19.8134 3.37856 23.4208 3.37856 27.1393C7.95424 27.1393 12.5033 27.1393 17.1322 27.1393C17.1322 28.166 17.1322 29.0818 17.1322 30.1085C11.4658 30.1085 5.77281 30.1085 0 30.1085C0 20.0908 0 10.0732 0 0C5.6664 0 11.3062 0 16.9992 0C16.9992 0.943493 16.9992 1.85924 16.9992 2.91373C12.4767 2.91373 7.95424 2.91373 3.35195 2.91373Z" fill="white"/>
<path d="M158.847 17.093C159.325 17.315 159.751 17.6203 160.23 17.759C162.465 18.425 164.699 19.0633 166.907 19.7015C168.503 20.1733 169.913 20.9225 171.27 21.9215C173.425 23.5032 173.319 27.0275 171.669 28.6092C170.286 29.9412 168.796 30.9402 166.881 31.3009C163.901 31.8559 160.948 32.3554 157.942 31.6617C156.851 31.4119 155.787 31.0512 154.723 30.6349C153.712 30.2187 152.941 29.4694 152.542 28.3872C152.222 27.5825 152.435 26.8055 152.994 26.3337C153.553 25.862 154.404 25.8065 155.016 26.3337C157.41 28.4705 160.257 28.4704 163.156 28.1652C164.087 28.082 165.045 27.9432 165.95 27.6935C166.588 27.527 167.226 27.194 167.785 26.8055C168.716 26.1672 168.69 25.0572 167.652 24.5855C166.162 23.8917 164.619 23.3645 163.103 22.7817C161.507 22.1712 159.884 21.6717 158.288 21.0335C156.373 20.2565 155.175 18.3418 155.335 16.2328C155.415 15.206 155.707 14.1238 156.133 13.208C157.782 9.76707 161.906 7.54708 165.55 8.04658C166.801 8.21308 167.918 8.71258 168.796 9.68382C169.195 10.1278 169.434 10.6273 169.195 11.2101C168.956 11.7928 168.424 11.8206 167.918 11.8483C166.295 11.9316 164.673 11.9593 163.05 12.1536C161.666 12.3201 160.549 13.0693 159.618 14.1515C158.98 14.9563 158.687 15.8443 158.847 17.093Z" fill="white"/>
<path d="M140.091 21.2549C139.612 21.7266 139.319 22.0319 139.027 22.3371C136.553 24.9456 133.999 27.4431 130.993 29.4133C130.434 29.7741 129.742 30.0793 129.104 30.1348C127.242 30.3013 126.151 29.4411 125.805 27.4986C125.645 26.5829 125.539 25.6116 125.566 24.6959C125.619 22.3926 125.752 20.0894 125.885 17.8139C125.991 15.5662 126.151 13.2907 126.257 11.043C126.284 10.4047 126.47 9.90524 127.109 9.82199C127.72 9.71099 128.226 10.044 128.386 10.6267C128.572 11.1817 128.652 11.7922 128.652 12.4027C128.598 16.6207 128.492 20.8664 128.439 25.0844C128.439 25.7781 128.492 26.4718 128.519 27.3321C128.864 27.1656 129.051 27.1378 129.157 27.0268C133.573 22.9476 137.723 18.5909 141.501 13.8457C142.113 13.0965 142.724 12.3472 143.363 11.6257C143.815 11.1262 144.374 10.8487 145.012 11.2095C145.624 11.5425 145.731 12.153 145.598 12.7635C145.332 14.04 144.959 15.3164 144.693 16.6207C144.347 18.3967 144.028 20.1727 143.762 21.9486C143.682 22.5036 143.682 23.0864 143.735 23.6414C143.895 25.5839 145.278 26.6661 147.141 26.3054C147.673 26.2221 148.205 26.0279 148.737 25.9169C149.641 25.7226 150.253 25.9724 150.519 26.5828C150.785 27.1656 150.652 27.9426 149.987 28.4976C149.455 28.9416 148.87 29.3301 148.231 29.6076C144.587 31.2171 140.383 28.4976 140.117 24.4184C140.038 23.4471 140.091 22.5036 140.091 21.2549Z" fill="white"/>
<path d="M40.037 27.1121C40.037 28.2221 40.037 29.1101 40.037 30.1091C34.5568 30.1091 29.1298 30.1091 23.623 30.1091C23.623 20.0637 23.623 10.1015 23.623 0.0283203C24.7138 0.0283203 25.7779 0.0283203 26.9484 0.0283203C26.9484 8.9915 26.9484 17.9824 26.9484 27.1399C31.3379 27.1121 35.6209 27.1121 40.037 27.1121Z" fill="white"/>
<path d="M109.975 30.9691C108.299 31.5241 107.528 30.9691 107.501 29.4984C107.474 28.2219 107.395 26.9454 107.315 25.6689C107.155 23.4767 106.942 21.3122 106.809 19.12C106.676 16.789 106.597 14.458 106.517 12.127C106.517 11.9328 106.49 11.7385 106.517 11.572C106.57 10.7118 107.049 10.129 107.714 10.0735C108.406 10.018 108.964 10.462 109.124 11.35C109.31 12.6265 109.416 13.903 109.523 15.1795C109.682 16.9 109.842 18.6205 110.214 20.3965C110.374 20.1745 110.56 19.9802 110.667 19.7305C112.502 16.1507 115.189 13.3758 118.435 11.239C119.525 10.5175 120.882 10.1568 122.159 9.82379C123.17 9.57404 123.915 10.1845 124.154 11.1003C124.367 11.9328 124.075 12.5155 123.197 13.015C121.946 13.7365 120.616 14.4025 119.419 15.2072C116.413 17.1775 113.859 19.6472 111.997 22.8384C110.906 24.7254 110.454 26.7789 110.321 28.9711C110.268 29.6649 110.081 30.3309 109.975 30.9691Z" fill="white"/>
<path d="M50.5726 9.35388C51.4239 9.13188 52.2486 8.88213 53.0999 8.66013C53.0733 8.52138 53.0733 8.38264 53.0466 8.24389C51.5835 8.16064 50.0937 8.24388 48.6306 8.41038C48.604 8.29938 48.604 8.18839 48.5774 8.10514C50.0937 7.77214 51.6101 7.41139 53.1265 7.07839C53.0999 6.96739 53.0999 6.82865 53.0733 6.71765C52.4082 6.7454 51.7165 6.80089 51.0514 6.82864C51.0248 6.74539 50.9982 6.66215 50.9982 6.5789C51.6899 6.3569 52.3816 6.16265 53.0466 5.94065C53.0466 5.88515 53.02 5.82965 53.02 5.77415C52.6476 5.7464 52.2752 5.71865 51.9027 5.6909C51.8761 5.60765 51.8495 5.5244 51.8229 5.44115C52.2752 5.27465 52.7274 5.0804 53.3659 4.8584C52.9136 4.69191 52.6742 4.60866 52.3018 4.49766C52.5944 4.30341 52.7806 4.16466 52.8072 4.13691C53.0999 3.49867 53.3393 2.97142 53.6319 2.38867C53.8979 2.38867 54.2172 2.38867 54.5364 2.38867C54.563 2.63842 54.6162 2.86042 54.6428 3.11017C54.4832 3.22117 54.297 3.30442 54.0842 3.44317C54.297 3.55417 54.4832 3.63742 54.7758 3.80391C54.4832 3.99816 54.2438 4.13691 53.8181 4.41441C54.4034 4.55316 54.8556 4.66416 55.3079 4.77516C55.2015 4.94166 55.1217 5.0804 55.0153 5.27465C55.3611 5.3579 55.6803 5.44115 55.9996 5.5244C55.9996 5.5799 55.9996 5.66315 56.0262 5.71865C55.4941 5.8574 54.9621 5.99615 54.43 6.1349C54.43 6.1904 54.43 6.2459 54.43 6.3014C55.3079 6.38465 56.1592 6.46789 57.0371 6.52339C57.0637 6.60664 57.0637 6.6899 57.0903 6.77314C56.0528 6.99514 54.9887 7.24489 53.9511 7.46689C53.9777 7.57789 53.9777 7.68889 54.0044 7.82764C55.2015 8.21614 56.505 7.74439 57.7021 8.32713C56.4518 8.57688 55.2015 8.79888 53.9777 9.04863C53.9777 9.15963 53.9511 9.29838 53.9511 9.40938C54.3768 9.57588 54.8024 9.71462 55.3877 9.93662C54.8024 10.1586 54.3768 10.2974 53.8181 10.5194C54.164 10.7691 54.3502 10.8801 54.6162 11.0744C54.43 11.2409 54.2704 11.3796 53.9777 11.6571C55.4675 11.8236 56.7444 11.9901 58.048 12.1289C58.048 12.2399 58.048 12.3231 58.048 12.4341C56.6912 12.6561 55.3345 12.8504 54.0044 13.0724C54.0044 13.1556 54.0044 13.2666 54.031 13.3499C55.4143 13.6828 56.8775 13.1834 58.2608 13.4331C58.2874 13.5164 58.2874 13.6274 58.314 13.7106C57.5425 13.8493 56.7444 14.0158 55.973 14.1546C54.164 14.4598 54.164 14.4321 54.031 15.1813C55.0419 15.2646 56.0528 15.3478 57.0637 15.4311C57.0637 15.5143 57.0637 15.6253 57.0903 15.7086C56.1592 15.8196 55.2547 15.9028 54.3236 16.0138C54.3236 16.0693 54.3502 16.0971 54.3502 16.1526C54.7492 16.2636 55.1749 16.4023 55.5739 16.5133C55.5739 16.6243 55.5739 16.7076 55.5739 16.8186C55.1483 16.9573 54.7226 17.0961 54.2438 17.2348C54.1374 17.6511 54.0044 18.1228 53.8713 18.7333C54.696 18.8166 55.3877 18.8721 56.0794 18.9276C56.0794 18.9831 56.0794 19.0663 56.0794 19.1218C55.3611 19.2883 54.6428 19.4548 53.9245 19.6213C53.9245 19.7601 53.9511 19.8711 53.9511 20.0098C55.8399 20.0931 57.7554 20.1763 59.8836 20.2873C59.1653 21.0366 58.447 20.7591 57.8352 20.9256C57.1967 21.0921 56.5316 21.0921 55.8932 21.2031C55.2281 21.2863 54.563 21.425 53.8979 21.5083C53.8713 21.6193 53.8713 21.7303 53.8447 21.869C54.0842 21.98 54.297 22.202 54.5364 22.1743C55.8399 22.1743 57.1435 22.091 58.447 22.0633C58.7929 22.0633 59.1653 22.1188 59.5111 22.313C58.6066 22.757 57.6489 22.7848 56.6912 22.8958C55.7335 23.0068 54.8024 23.1455 53.8447 23.2843C53.8447 23.423 53.8181 23.5618 53.8181 23.7005C54.0842 23.7838 54.3236 23.9503 54.5896 23.9503C55.6271 23.9503 56.6912 23.8948 57.7287 23.8948C58.048 23.8948 58.3406 23.978 58.6598 24.0335C58.6598 24.1445 58.6598 24.2833 58.6598 24.3943C57.3031 24.533 55.9464 24.6718 54.5896 24.8105C54.5896 24.866 54.5896 24.9493 54.5896 25.0048C54.962 25.1158 55.3345 25.2268 55.7069 25.3378C55.7069 25.421 55.7069 25.532 55.7069 25.6153C55.2015 25.754 54.7226 25.9205 54.1374 26.087C53.9511 27.5023 53.7915 28.9452 53.6053 30.3605C53.4723 30.3605 53.3659 30.3605 53.2329 30.3327C52.7806 28.8065 53.2861 27.197 52.9402 25.5875C52.2752 25.532 51.5569 25.4488 50.8652 25.3933C50.8652 25.2823 50.8386 25.1713 50.8386 25.0603C51.3707 24.8938 51.8761 24.755 52.4082 24.5885C52.4082 24.5608 52.4082 24.5053 52.3816 24.4775C50.4396 24.4775 48.471 24.4775 46.529 24.4775C46.529 24.3943 46.5024 24.2833 46.5024 24.2C48.4444 23.3398 50.5992 23.3675 52.621 22.8125C50.2267 22.5073 47.8591 22.8125 45.4648 22.8958C45.8373 22.313 46.4225 22.313 46.9546 22.2298C48.737 21.9245 50.5194 21.647 52.3018 21.3418C52.5944 21.2863 52.887 21.1198 53.1531 20.8146C52.1155 20.2873 51.0514 20.4261 50.0139 20.4816C49.003 20.5371 47.9655 20.6758 46.928 20.6203C47.8325 19.9821 48.8966 19.9543 49.9075 19.7323C50.9716 19.5103 52.0357 19.3993 53.1531 19.2328C52.9934 18.7333 52.8604 18.2893 52.7008 17.8176C52.5412 17.7343 52.355 17.5956 52.0357 17.4013C52.3284 17.1793 52.5678 16.9851 52.9934 16.6521C52.3816 16.6521 51.9825 16.6521 51.6101 16.6521C51.2909 16.6243 50.9716 16.5966 50.6258 16.5411C50.6258 16.4301 50.5992 16.3191 50.5992 16.1803C51.1578 16.0416 51.7431 15.9028 52.355 15.7363C50.3066 15.2923 48.2847 15.7363 46.2895 15.8473C46.2895 15.7363 46.2629 15.6253 46.2629 15.5143C48.471 15.0981 50.679 14.7096 52.8604 14.2933C52.8604 14.2101 52.8604 14.0991 52.8338 14.0158C51.1845 13.8216 49.5351 14.2101 47.8857 14.2933C47.8857 14.1823 47.8591 14.0713 47.8591 13.9603C49.5617 13.5996 51.2643 13.2389 53.0466 12.8781C53.4989 11.8791 52.4082 11.4351 52.4082 10.4639C52.4614 10.4084 52.7008 10.2419 53.1265 9.93662C52.222 9.88112 51.4771 9.82563 50.7322 9.77013C50.6258 9.54813 50.5992 9.46488 50.5726 9.35388Z" fill="white"/>
</svg>
