<svg width="29" height="18" viewBox="0 0 29 18" fill="none" xmlns="http://www.w3.org/2000/svg">
<path d="M28.907 8.67224C28.907 13.4443 25.0526 17.3445 20.2347 17.3445C15.4627 17.3445 11.5625 13.4443 11.5625 8.67224C11.5625 3.90021 15.4168 0 20.1888 0C25.0526 0 28.907 3.90021 28.907 8.67224Z" fill="#FFB600"/>
<path d="M20.2347 0C25.0067 0 28.907 3.90021 28.907 8.67224C28.907 13.4443 25.0526 17.3445 20.2347 17.3445C15.4627 17.3445 11.5625 13.4443 11.5625 8.67224" fill="#F7981D"/>
<path d="M20.2363 0C25.0084 0 28.9086 3.90021 28.9086 8.67224C28.9086 13.4443 25.0542 17.3445 20.2363 17.3445" fill="#FF8500"/>
<path d="M8.58047 0C3.85433 0.0458849 0 3.90021 0 8.67224C0 13.4443 3.85433 17.3445 8.67224 17.3445C10.9206 17.3445 12.9395 16.4727 14.4996 15.0961C14.8208 14.8208 15.0961 14.4996 15.3714 14.1784H13.5819C13.3525 13.9031 13.1231 13.5819 12.9395 13.3066H16.0138C16.1974 13.0313 16.3809 12.7101 16.5186 12.3889H12.4348C12.2971 12.1136 12.1595 11.7924 12.0677 11.4712H16.8398C17.1151 10.5994 17.2986 9.68171 17.2986 8.71813C17.2986 8.07574 17.2068 7.47923 17.1151 6.88273H11.7924C11.8383 6.56154 11.9301 6.28623 12.0218 5.96503H16.7939C16.7021 5.64384 16.5644 5.32265 16.4268 5.04734H12.3889C12.5266 4.72614 12.7101 4.45083 12.8937 4.12964H15.9679C15.7844 3.80844 15.555 3.48725 15.2797 3.21194H13.5819C13.8572 2.89075 14.1325 2.61544 14.4537 2.34013C12.9395 0.917698 10.8747 0.0917697 8.62636 0.0917697C8.62636 -8.88859e-08 8.62636 0 8.58047 0Z" fill="#FF5050"/>
<path d="M0 8.67227C0 13.4443 3.85433 17.3445 8.67224 17.3445C10.9206 17.3445 12.9395 16.4727 14.4996 15.0962C14.8208 14.8208 15.0961 14.4997 15.3714 14.1785H13.5819C13.3525 13.9031 13.1231 13.582 12.9395 13.3066H16.0138C16.1974 13.0313 16.3809 12.7101 16.5186 12.3889H12.4348C12.2971 12.1136 12.1595 11.7924 12.0677 11.4712H16.8398C17.1151 10.5994 17.2986 9.68174 17.2986 8.71815C17.2986 8.07577 17.2068 7.47926 17.1151 6.88276H11.7924C11.8383 6.56156 11.9301 6.28626 12.0218 5.96506H16.7939C16.7021 5.64387 16.5644 5.32267 16.4268 5.04736H12.3889C12.5266 4.72617 12.7101 4.45086 12.8937 4.12967H15.9679C15.7844 3.80847 15.555 3.48728 15.2797 3.21197H13.5819C13.8572 2.89077 14.1325 2.61547 14.4537 2.34016C12.9395 0.917725 10.8747 0.0917969 8.62636 0.0917969H8.58047" fill="#E52836"/>
<path d="M8.6738 17.3445C10.9222 17.3445 12.9411 16.4727 14.5012 15.0962C14.8224 14.8208 15.0977 14.4997 15.373 14.1785H13.5835C13.3541 13.9031 13.1246 13.582 12.9411 13.3066H16.0154C16.1989 13.0313 16.3825 12.7101 16.5201 12.3889H12.4364C12.2987 12.1136 12.1611 11.7924 12.0693 11.4712H16.8413C17.1166 10.5994 17.3002 9.68174 17.3002 8.71815C17.3002 8.07577 17.2084 7.47926 17.1166 6.88276H11.794C11.8399 6.56156 11.9316 6.28626 12.0234 5.96506H16.7954C16.7037 5.64387 16.566 5.32267 16.4283 5.04736H12.3905C12.5281 4.72617 12.7117 4.45086 12.8952 4.12967H15.9695C15.786 3.80847 15.5565 3.48728 15.2812 3.21197H13.5835C13.8588 2.89077 14.1341 2.61547 14.4553 2.34016C12.9411 0.917725 10.8763 0.0917969 8.62792 0.0917969H8.58203" fill="#CB2026"/>
<path d="M11.7467 10.8738L11.8843 10.0938C11.8384 10.0938 11.7467 10.1396 11.6549 10.1396C11.3337 10.1396 11.2878 9.95611 11.3337 9.86434L11.609 8.25837H12.1138L12.2514 7.38656H11.7926L11.8843 6.83594H10.9666C10.9666 6.83594 10.416 9.86434 10.416 10.2314C10.416 10.782 10.7372 11.0115 11.1502 11.0115C11.4255 11.0115 11.6549 10.9197 11.7467 10.8738Z" fill="white"/>
<path d="M12.0664 9.40657C12.0664 10.6913 12.9382 11.0125 13.6724 11.0125C14.3607 11.0125 14.636 10.8749 14.636 10.8749L14.8195 10.0031C14.8195 10.0031 14.3148 10.2325 13.8559 10.2325C12.8465 10.2325 13.03 9.49834 13.03 9.49834H14.9113C14.9113 9.49834 15.0489 8.90183 15.0489 8.67241C15.0489 8.0759 14.7277 7.34174 13.7183 7.34174C12.7547 7.24997 12.0664 8.25944 12.0664 9.40657ZM13.6724 8.0759C14.1771 8.0759 14.0853 8.67241 14.0853 8.71829H13.0759C13.0759 8.67241 13.1676 8.0759 13.6724 8.0759Z" fill="white"/>
<path d="M19.5002 10.8746L19.6838 9.86518C19.6838 9.86518 19.2249 10.0946 18.9037 10.0946C18.2613 10.0946 17.986 9.58987 17.986 9.03926C17.986 7.93802 18.5366 7.34152 19.179 7.34152C19.6379 7.34152 20.005 7.61683 20.005 7.61683L20.1426 6.65325C20.1426 6.65325 19.592 6.42383 19.0873 6.42383C18.0319 6.42383 16.9766 7.34152 16.9766 9.08514C16.9766 10.2323 17.5272 11.0123 18.6284 11.0123C18.9955 11.0123 19.5002 10.8746 19.5002 10.8746Z" fill="white"/>
<path d="M6.70065 7.25C6.05827 7.25 5.59942 7.43354 5.59942 7.43354L5.46176 8.21358C5.46176 8.21358 5.87473 8.03004 6.47123 8.03004C6.79242 8.03004 7.06773 8.07592 7.06773 8.35123C7.06773 8.53477 7.02184 8.58065 7.02184 8.58065C7.02184 8.58065 6.74654 8.58065 6.60888 8.58065C5.82884 8.58065 4.95703 8.90185 4.95703 9.95719C4.95703 10.7831 5.50765 10.9667 5.82884 10.9667C6.47123 10.9667 6.74654 10.5537 6.79242 10.5537L6.74654 10.9208H7.57246L7.93954 8.39712C7.93954 7.29588 7.02184 7.25 6.70065 7.25ZM6.88419 9.31481C6.88419 9.45246 6.79242 10.1866 6.2418 10.1866C5.9665 10.1866 5.87473 9.95719 5.87473 9.81954C5.87473 9.59012 6.01238 9.26892 6.70065 9.26892C6.83831 9.31481 6.88419 9.31481 6.88419 9.31481Z" fill="white"/>
<path d="M8.81121 10.9657C9.04064 10.9657 10.1878 11.0116 10.1878 9.77267C10.1878 8.62555 9.08652 8.85498 9.08652 8.39613C9.08652 8.16671 9.27006 8.07494 9.59126 8.07494C9.72891 8.07494 10.2336 8.12082 10.2336 8.12082L10.3713 7.29489C10.3713 7.29489 10.0501 7.20312 9.49949 7.20312C8.81121 7.20312 8.12294 7.47843 8.12294 8.39613C8.12294 9.45148 9.27006 9.35971 9.27006 9.77267C9.27006 10.048 8.94887 10.0939 8.71944 10.0939C8.30648 10.0939 7.89351 9.95621 7.89351 9.95621L7.75586 10.7821C7.80174 10.8739 8.03117 10.9657 8.81121 10.9657Z" fill="white"/>
<path d="M27.1174 6.51562L26.9339 7.75452C26.9339 7.75452 26.5668 7.29567 26.062 7.29567C25.2361 7.29567 24.502 8.30514 24.502 9.49814C24.502 10.2323 24.869 11.0123 25.6491 11.0123C26.1997 11.0123 26.5209 10.6453 26.5209 10.6453L26.475 10.9665H27.3927L28.081 6.56151L27.1174 6.51562ZM26.7044 8.94752C26.7044 9.45226 26.475 10.0946 25.9703 10.0946C25.6491 10.0946 25.4655 9.81934 25.4655 9.36049C25.4655 8.62633 25.7867 8.16748 26.1997 8.16748C26.5209 8.16748 26.7044 8.39691 26.7044 8.94752Z" fill="white"/>
<path d="M1.69798 10.9206L2.2486 7.61686L2.34037 10.9206H2.98276L4.17577 7.61686L3.67103 10.9206H4.63462L5.36878 6.51562H3.85457L2.93688 9.22283L2.89099 6.51562H1.56033L0.826172 10.9206H1.69798Z" fill="white"/>
<path d="M15.9216 10.9208C16.1969 9.40661 16.2428 8.16772 16.8852 8.39714C16.9769 7.80064 17.1146 7.57122 17.2064 7.3418C17.2064 7.3418 17.1605 7.3418 17.0228 7.3418C16.6098 7.3418 16.2887 7.89241 16.2887 7.89241L16.3804 7.38768H15.5086L14.9121 10.9667H15.9216V10.9208Z" fill="white"/>
<path d="M21.6128 7.25C20.9704 7.25 20.5115 7.43354 20.5115 7.43354L20.3739 8.21358C20.3739 8.21358 20.7868 8.03004 21.3833 8.03004C21.7045 8.03004 21.9798 8.07592 21.9798 8.35123C21.9798 8.53477 21.934 8.58065 21.934 8.58065C21.934 8.58065 21.6587 8.58065 21.521 8.58065C20.741 8.58065 19.8691 8.90185 19.8691 9.95719C19.8691 10.7831 20.4198 10.9667 20.741 10.9667C21.3833 10.9667 21.6587 10.5537 21.7045 10.5537L21.6587 10.9208H22.4846L22.8517 8.39712C22.8975 7.29588 21.934 7.25 21.6128 7.25ZM21.8422 9.31481C21.8422 9.45246 21.7504 10.1866 21.1998 10.1866C20.9245 10.1866 20.8327 9.95719 20.8327 9.81954C20.8327 9.59012 20.9704 9.26892 21.6587 9.26892C21.7963 9.31481 21.7963 9.31481 21.8422 9.31481Z" fill="white"/>
<path d="M23.6325 10.9208C23.9078 9.40661 23.9537 8.16772 24.5961 8.39714C24.6879 7.80064 24.8255 7.57122 24.9173 7.3418C24.9173 7.3418 24.8714 7.3418 24.7338 7.3418C24.3208 7.3418 23.9996 7.89241 23.9996 7.89241L24.0914 7.38768H23.2195L22.623 10.9667H23.6325V10.9208Z" fill="white"/>
<path d="M10.3262 10.2314C10.3262 10.782 10.6474 11.0115 11.0603 11.0115C11.3815 11.0115 11.6568 10.9197 11.7486 10.8738L11.8863 10.0938C11.8404 10.0938 11.7486 10.1396 11.6568 10.1396C11.3356 10.1396 11.2898 9.95611 11.3356 9.86434L11.611 8.25837H12.1157L12.2533 7.38656H11.7945L11.8863 6.83594" fill="#DCE5E5"/>
<path d="M12.5273 9.40657C12.5273 10.6913 12.9403 11.0125 13.6745 11.0125C14.3627 11.0125 14.6381 10.8749 14.6381 10.8749L14.8216 10.0031C14.8216 10.0031 14.3169 10.2325 13.858 10.2325C12.8485 10.2325 13.0321 9.49834 13.0321 9.49834H14.9134C14.9134 9.49834 15.051 8.90183 15.051 8.67241C15.051 8.0759 14.7298 7.34174 13.7204 7.34174C12.7568 7.24997 12.5273 8.25944 12.5273 9.40657ZM13.6745 8.0759C14.1792 8.0759 14.271 8.67241 14.271 8.71829H13.078C13.078 8.67241 13.1697 8.0759 13.6745 8.0759Z" fill="#DCE5E5"/>
<path d="M19.5023 10.8746L19.6859 9.86518C19.6859 9.86518 19.227 10.0946 18.9058 10.0946C18.2634 10.0946 17.9881 9.58987 17.9881 9.03926C17.9881 7.93802 18.5387 7.34152 19.1811 7.34152C19.64 7.34152 20.0071 7.61683 20.0071 7.61683L20.1447 6.65325C20.1447 6.65325 19.5941 6.42383 19.0894 6.42383C18.034 6.42383 17.4375 7.34152 17.4375 9.08514C17.4375 10.2323 17.5293 11.0123 18.6305 11.0123C18.9976 11.0123 19.5023 10.8746 19.5023 10.8746Z" fill="#DCE5E5"/>
<path d="M5.46176 8.25949C5.46176 8.25949 5.87473 8.07595 6.47123 8.07595C6.79242 8.07595 7.06773 8.12184 7.06773 8.39714C7.06773 8.58068 7.02184 8.62657 7.02184 8.62657C7.02184 8.62657 6.74654 8.62657 6.60888 8.62657C5.82884 8.62657 4.95703 8.94776 4.95703 10.0031C4.95703 10.829 5.50765 11.0126 5.82884 11.0126C6.47123 11.0126 6.74654 10.5996 6.79242 10.5996L6.74654 10.9667H7.57246L7.93954 8.44303C7.93954 7.38768 7.02184 7.3418 6.65477 7.3418L5.46176 8.25949ZM7.34304 9.31484C7.34304 9.45249 6.79242 10.1866 6.2418 10.1866C5.9665 10.1866 5.87473 9.95722 5.87473 9.81957C5.87473 9.59015 6.01238 9.26895 6.70065 9.26895C6.83831 9.31484 7.34304 9.31484 7.34304 9.31484Z" fill="#DCE5E5"/>
<path d="M7.79883 10.8739C7.79883 10.8739 8.07414 10.9657 8.85418 10.9657C9.0836 10.9657 10.2307 11.0116 10.2307 9.77267C10.2307 8.62555 9.12949 8.85498 9.12949 8.39613C9.12949 8.16671 9.31303 8.07494 9.63422 8.07494C9.77188 8.07494 10.2766 8.12082 10.2766 8.12082L10.4143 7.29489C10.4143 7.29489 10.0931 7.20312 9.54245 7.20312C8.85418 7.20312 8.62476 7.47843 8.62476 8.39613C8.62476 9.45148 9.31303 9.35971 9.31303 9.77267C9.31303 10.048 8.99183 10.0939 8.76241 10.0939" fill="#DCE5E5"/>
<path d="M26.9334 7.75453C26.9334 7.75453 26.5663 7.29568 26.0616 7.29568C25.2357 7.29568 24.9604 8.30514 24.9604 9.49814C24.9604 10.2323 24.8686 11.0123 25.6486 11.0123C26.1993 11.0123 26.5204 10.6453 26.5204 10.6453L26.4746 10.9665H27.3923L28.0805 6.56152L26.9334 7.75453ZM26.8875 8.94753C26.8875 9.45226 26.4746 10.0946 25.9698 10.0946C25.6486 10.0946 25.4651 9.81934 25.4651 9.36049C25.4651 8.62634 25.7863 8.16749 26.1993 8.16749C26.5204 8.16749 26.8875 8.39691 26.8875 8.94753Z" fill="#DCE5E5"/>
<path d="M1.69798 10.9206L2.2486 7.61686L2.34037 10.9206H2.98276L4.17577 7.61686L3.67103 10.9206H4.63462L5.36878 6.51562H4.22165L2.93688 9.22283L2.89099 6.51562H2.38626L0.826172 10.9206H1.69798Z" fill="#DCE5E5"/>
<path d="M14.957 10.9208H15.9206C16.1959 9.40661 16.2418 8.16772 16.8842 8.39714C16.976 7.80064 17.1136 7.57122 17.2054 7.3418C17.2054 7.3418 17.1595 7.3418 17.0219 7.3418C16.6089 7.3418 16.2877 7.89241 16.2877 7.89241L16.3795 7.38768" fill="#DCE5E5"/>
<path d="M20.3739 8.25949C20.3739 8.25949 20.7868 8.07595 21.3833 8.07595C21.7045 8.07595 21.9798 8.12184 21.9798 8.39714C21.9798 8.58068 21.934 8.62657 21.934 8.62657C21.934 8.62657 21.6587 8.62657 21.521 8.62657C20.741 8.62657 19.8691 8.94776 19.8691 10.0031C19.8691 10.829 20.4198 11.0126 20.741 11.0126C21.3833 11.0126 21.6587 10.5996 21.7045 10.5996L21.6587 10.9667H22.4846L22.8517 8.44303C22.8517 7.38768 21.934 7.3418 21.5669 7.3418L20.3739 8.25949ZM22.2552 9.31484C22.2552 9.45249 21.7045 10.1866 21.1539 10.1866C20.8786 10.1866 20.7868 9.95722 20.7868 9.81957C20.7868 9.59015 20.9245 9.26895 21.6128 9.26895C21.7963 9.31484 22.2552 9.31484 22.2552 9.31484Z" fill="#DCE5E5"/>
<path d="M22.668 10.9208H23.6316C23.9069 9.40661 23.9527 8.16772 24.5951 8.39714C24.6869 7.80064 24.8246 7.57122 24.9163 7.3418C24.9163 7.3418 24.8704 7.3418 24.7328 7.3418C24.3198 7.3418 23.9986 7.89241 23.9986 7.89241L24.0904 7.38768" fill="#DCE5E5"/>
</svg>
