<svg width="52" height="13" viewBox="0 0 52 13" fill="none" xmlns="http://www.w3.org/2000/svg">
<path fill-rule="evenodd" clip-rule="evenodd" d="M46.7019 0.40918H36.8477C37.3775 3.18577 40.5562 5.78323 44.0529 5.78323H51.8939C51.9998 5.51453 51.9998 5.15626 51.9998 4.88756C51.9998 2.37967 49.6687 0.40918 46.7019 0.40918Z" fill="url(#paint0_linear_1602_3371)"/>
<path fill-rule="evenodd" clip-rule="evenodd" d="M37.6973 6.23145V12.949H42.4654V9.36631H46.7038C49.0349 9.36631 51.0481 8.0228 51.6839 6.23145H37.6973Z" fill="#4DB45F"/>
<path fill-rule="evenodd" clip-rule="evenodd" d="M20.7402 0.40918V12.9486H24.9786C24.9786 12.9486 26.0382 12.9486 26.568 12.053C29.4289 7.21631 30.2766 5.78323 30.2766 5.78323H30.8064V12.9486H35.5745V0.40918H31.3362C31.3362 0.40918 30.2766 0.498747 29.7468 1.30485C27.3097 5.42496 26.0382 7.57458 26.0382 7.57458H25.5084V0.40918H20.7402Z" fill="#4DB45F"/>
<path fill-rule="evenodd" clip-rule="evenodd" d="M0.609375 12.9486V0.40918H5.37754C5.37754 0.40918 6.75501 0.40918 7.49672 2.20053C9.40399 6.94761 9.61591 7.57458 9.61591 7.57458C9.61591 7.57458 10.0397 6.4102 11.7351 2.20053C12.4768 0.40918 13.8543 0.40918 13.8543 0.40918H18.6224V12.9486H13.8543V6.23107H13.3245L10.6755 12.9486H8.55632L5.90734 6.23107H5.37754V12.9486H0.609375Z" fill="#4DB45F"/>
<defs>
<linearGradient id="paint0_linear_1602_3371" x1="36.8203" y1="3.09621" x2="51.9998" y2="3.09621" gradientUnits="userSpaceOnUse">
<stop stop-color="#00B4E6"/>
<stop offset="1" stop-color="#088CCB"/>
</linearGradient>
</defs>
</svg>
