<svg width="22" height="22" viewBox="0 0 22 22" fill="none" xmlns="http://www.w3.org/2000/svg">
<path d="M15.534 12.2261L13.0885 14.6718C10.6056 13.4115 8.58804 11.3939 7.32774 8.91101L9.77345 6.46551L6.86024 0.895508L4.04354 1.79611C2.98912 2.12197 2.09333 2.82787 1.52996 3.77687C0.966604 4.72587 0.775824 5.8503 0.994644 6.93201C1.75099 10.3766 3.48085 13.5313 5.97844 16.0211C8.46817 18.5186 11.623 20.2485 15.0675 21.0049C16.1492 21.2237 17.2736 21.0329 18.2226 20.4695C19.1716 19.9062 19.8775 19.0104 20.2034 17.956L21.104 15.1393L15.534 12.2261ZM18.7746 17.4991C18.5611 18.1966 18.0975 18.7907 17.4728 19.1673C16.8481 19.544 16.1063 19.6766 15.3898 19.5398C12.227 18.8397 9.32985 17.2509 7.03921 14.9603C4.74862 12.6697 3.15983 9.77256 2.45974 6.60971C2.32282 5.89316 2.45541 5.15129 2.83205 4.52653C3.2087 3.90177 3.80285 3.43816 4.50044 3.22471L6.11524 2.70831L7.93384 6.18371L6.26724 7.85021L5.49554 8.62181L5.99204 9.59356C7.39601 12.3574 9.64205 14.6035 12.406 16.0075L13.3777 16.504L14.1493 15.7323L15.8158 14.0657L19.291 15.8843L18.7746 17.4991ZM15.2498 8.99971H16.7498C16.7486 8.00551 16.3532 7.05236 15.6502 6.34935C14.9471 5.64634 13.994 5.25088 12.9998 5.24971V6.74971C13.5963 6.75045 14.1682 6.98774 14.59 7.40954C15.0118 7.83134 15.249 8.4032 15.2498 8.99971ZM19.2498 8.99971H20.7498C20.7475 6.94499 19.9302 4.97509 18.4773 3.52218C17.0244 2.06927 15.0545 1.25201 12.9998 1.24971V2.74971C14.6568 2.75156 16.2455 3.41064 17.4172 4.58234C18.5889 5.75404 19.2479 7.34268 19.2498 8.99971Z" fill="white"/>
</svg>
