<svg width="18" height="18" viewBox="0 0 18 18" fill="none" xmlns="http://www.w3.org/2000/svg">
<path d="M17.2117 16.6226L12.3284 11.7392C13.4773 10.4372 14.0744 8.73914 13.9931 7.00458C13.912 5.27004 13.1588 3.63519 11.8933 2.44623C10.6277 1.25726 8.94914 0.607527 7.21291 0.634602C5.47668 0.661677 3.81914 1.36344 2.59129 2.59129C1.36344 3.81914 0.661677 5.47668 0.634602 7.21291C0.607527 8.94914 1.25726 10.6277 2.44623 11.8933C3.63519 13.1588 5.27004 13.912 7.00458 13.9931C8.73914 14.0744 10.4372 13.4773 11.7392 12.3284L16.6226 17.2117L17.2117 16.6226ZM7.3338 13.1671C6.18004 13.1671 5.05222 12.825 4.09294 12.184C3.13365 11.5431 2.38598 10.632 1.94447 9.56605C1.50295 8.50022 1.38744 7.32729 1.61252 6.19574C1.83759 5.06418 2.39317 4.02478 3.20897 3.20897C4.02478 2.39317 5.06418 1.83759 6.19574 1.61252C7.32729 1.38744 8.50022 1.50295 9.56605 1.94447C10.632 2.38598 11.5431 3.13365 12.184 4.09294C12.825 5.05222 13.1671 6.18004 13.1671 7.3338C13.1654 8.8803 12.5502 10.3631 11.4566 11.4566C10.3631 12.5502 8.8803 13.1654 7.3338 13.1671Z" fill="#888888"/>
</svg>
