<svg width="43" height="13" viewBox="0 0 43 13" fill="none" xmlns="http://www.w3.org/2000/svg">
<path d="M16.1582 12.5922L18.3001 0.543945H21.6468L19.5719 12.5922H16.1582Z" fill="#3C58BF"/>
<path d="M16.1582 12.5922L18.9025 0.543945H21.6468L19.5719 12.5922H16.1582Z" fill="#293688"/>
<path d="M31.6863 0.677077C31.0169 0.409339 29.946 0.141602 28.6073 0.141602C25.2606 0.141602 22.8509 1.81496 22.8509 4.22461C22.8509 6.03184 24.5243 6.96892 25.863 7.57133C27.2017 8.17374 27.6033 8.57535 27.6033 9.11082C27.6033 9.91404 26.5323 10.3156 25.5953 10.3156C24.2566 10.3156 23.5203 10.1148 22.3824 9.6463L21.9139 9.4455L21.4453 12.1898C22.2485 12.5245 23.7211 12.8592 25.2606 12.8592C28.8081 12.8592 31.1508 11.1858 31.1508 8.64229C31.1508 7.23666 30.2807 6.16571 28.2726 5.29556C27.0678 4.69315 26.3315 4.35848 26.3315 3.75607C26.3315 3.22059 26.9339 2.68511 28.2726 2.68511C29.4105 2.68511 30.2137 2.88592 30.8161 3.15365L31.1508 3.28752L31.6863 0.677077Z" fill="#3C58BF"/>
<path d="M31.6863 0.677077C31.0169 0.409339 29.946 0.141602 28.6073 0.141602C25.2606 0.141602 23.4533 1.81496 23.4533 4.22461C23.4533 6.03184 24.5243 6.96892 25.863 7.57133C27.2017 8.17374 27.6033 8.57535 27.6033 9.11082C27.6033 9.91404 26.5323 10.3156 25.5953 10.3156C24.2566 10.3156 23.5203 10.1148 22.3824 9.6463L21.9139 9.4455L21.4453 12.1898C22.2485 12.5245 23.7211 12.8592 25.2606 12.8592C28.8081 12.8592 31.1508 11.1858 31.1508 8.64229C31.1508 7.23666 30.2807 6.16571 28.2726 5.29556C27.0678 4.69315 26.3315 4.35848 26.3315 3.75607C26.3315 3.22059 26.9339 2.68511 28.2726 2.68511C29.4105 2.68511 30.2137 2.88592 30.8161 3.15365L31.1508 3.28752L31.6863 0.677077Z" fill="#293688"/>
<path d="M37.442 0.543945C36.6388 0.543945 36.0364 0.610881 35.7017 1.41409L30.6816 12.5922H34.2961L34.9655 10.5841H39.2493L39.6509 12.5922H42.8637L40.0525 0.543945H37.442ZM35.9025 8.57609C36.1033 7.97368 37.2412 5.02856 37.2412 5.02856C37.2412 5.02856 37.509 4.29228 37.7098 3.82374L37.9106 4.96162C37.9106 4.96162 38.5799 7.97368 38.7138 8.64302H35.9025V8.57609Z" fill="#3C58BF"/>
<path d="M38.2452 0.543945C37.442 0.543945 36.8396 0.610881 36.5049 1.41409L30.6816 12.5922H34.2961L34.9655 10.5841H39.2493L39.6509 12.5922H42.8637L40.0525 0.543945H38.2452ZM35.9025 8.57609C36.1703 7.90674 37.2412 5.02856 37.2412 5.02856C37.2412 5.02856 37.509 4.29228 37.7098 3.82374L37.9106 4.96162C37.9106 4.96162 38.5799 7.97368 38.7138 8.64302H35.9025V8.57609Z" fill="#293688"/>
<path d="M9.9986 8.97715L9.66393 7.23685C9.06152 5.22882 7.12042 3.01999 4.97852 1.94904L7.99057 12.6585H11.605L17.0267 0.610352H13.4123L9.9986 8.97715Z" fill="#3C58BF"/>
<path d="M9.9986 8.97715L9.66393 7.23685C9.06152 5.22882 7.12042 3.01999 4.97852 1.94904L7.99057 12.6585H11.605L17.0267 0.610352H14.0816L9.9986 8.97715Z" fill="#293688"/>
<path d="M0.697266 0.543945L1.29968 0.677815C5.58349 1.68183 8.5286 4.22534 9.66649 7.2374L8.46167 1.54796C8.26087 0.744749 7.65846 0.543945 6.92218 0.543945H0.697266Z" fill="#FFBC00"/>
<path d="M0.697266 0.543945C4.98108 1.54796 8.5286 4.15841 9.66649 7.17046L8.5286 2.41811C8.3278 1.6149 7.65846 1.14636 6.92218 1.14636L0.697266 0.543945Z" fill="#F7981D"/>
<path d="M0.697266 0.543945C4.98108 1.54796 8.5286 4.15841 9.66649 7.17046L8.86328 4.56002C8.66247 3.7568 8.39474 2.95359 7.45765 2.61891L0.697266 0.543945Z" fill="#ED7C00"/>
<path d="M13.3507 8.57529L11.0749 6.29951L10.0039 8.84303L9.7362 7.16966C9.13379 5.16163 7.19269 2.95279 5.05078 1.88184L8.06284 12.5914H11.6773L13.3507 8.57529Z" fill="#051244"/>
<path d="M19.5777 12.5906L16.6995 9.64551L16.1641 12.5906H19.5777Z" fill="#051244"/>
<path d="M27.2745 8.44141C27.5422 8.70914 27.6761 8.90995 27.6092 9.17769C27.6092 9.9809 26.5382 10.3825 25.6011 10.3825C24.2624 10.3825 23.5261 10.1817 22.3883 9.71316L21.9197 9.51236L21.4512 12.2567C22.2544 12.5913 23.7269 12.926 25.2664 12.926C27.4083 12.926 29.1486 12.3236 30.1527 11.2527L27.2745 8.44141Z" fill="#051244"/>
<path d="M31.1582 12.5907H34.3041L34.9735 10.5827H39.2573L39.6589 12.5907H42.8718L41.7339 7.70447L37.7178 3.82227L37.9186 4.89322C37.9186 4.89322 38.5879 7.90527 38.7218 8.57462H35.9106C36.1783 7.90527 37.2492 5.02709 37.2492 5.02709C37.2492 5.02709 37.517 4.29081 37.7178 3.82227" fill="#051244"/>
</svg>
