<svg width="33" height="32" viewBox="0 0 33 32" fill="none" xmlns="http://www.w3.org/2000/svg">
<path fill-rule="evenodd" clip-rule="evenodd" d="M0.799805 16C0.799805 7.16344 7.96325 0 16.7998 0C25.6364 0 32.7998 7.16344 32.7998 16C32.7998 24.8366 25.6364 32 16.7998 32C7.96325 32 0.799805 24.8366 0.799805 16ZM17.6368 21.2507C17.6368 21.2507 17.9448 21.2171 18.1026 21.0508C18.247 20.8984 18.242 20.6108 18.242 20.6108C18.242 20.6108 18.2228 19.2678 18.858 19.0696C19.484 18.8745 20.2879 20.3683 21.141 20.9426C21.7854 21.3769 22.2745 21.2819 22.2745 21.2819L24.5542 21.2507C24.5542 21.2507 25.7462 21.1786 25.1811 20.2585C25.1343 20.1831 24.8514 19.5776 23.4866 18.3338C22.0567 17.0318 22.2487 17.2424 23.9699 14.9899C25.0183 13.6183 25.4373 12.7809 25.3063 12.4228C25.1819 12.0803 24.4106 12.1713 24.4106 12.1713L21.8447 12.1869C21.8447 12.1869 21.6543 12.1615 21.5133 12.2442C21.3755 12.3253 21.2862 12.5146 21.2862 12.5146C21.2862 12.5146 20.8805 13.5757 20.3388 14.4786C19.1961 16.3828 18.7395 16.4836 18.5525 16.3656C18.1176 16.0895 18.2261 15.2579 18.2261 14.6671C18.2261 12.821 18.5116 12.0517 17.671 11.8526C17.3922 11.7862 17.1869 11.7428 16.4732 11.7354C15.5575 11.7264 14.7828 11.7387 14.3438 11.9492C14.0516 12.0894 13.8262 12.4024 13.964 12.4204C14.1334 12.4425 14.5174 12.522 14.7211 12.794C14.984 13.1455 14.9748 13.9338 14.9748 13.9338C14.9748 13.9338 15.1259 16.1067 14.6217 16.3763C14.2762 16.5615 13.802 16.1837 12.7828 14.4557C12.2611 13.5708 11.8671 12.5924 11.8671 12.5924C11.8671 12.5924 11.7912 12.4097 11.6551 12.3114C11.4907 12.1926 11.2611 12.1557 11.2611 12.1557L8.82285 12.1713C8.82285 12.1713 8.4564 12.1811 8.32201 12.3376C8.20265 12.4761 8.31283 12.7637 8.31283 12.7637C8.31283 12.7637 10.2219 17.1481 12.3838 19.358C14.3663 21.3835 16.6167 21.2507 16.6167 21.2507H17.6368Z" fill="white"/>
</svg>
